<svg id="Layer_1" data-name="Layer 1" xmlns="http://www.w3.org/2000/svg" viewBox="0 0 192.82 35.85"><defs><style>.cls-1{fill:#fff;}</style></defs><title>Logo</title><path class="cls-1" d="M20.31,8.32l3,4.09a.87.87,0,0,0,.92.3L29.54,11a.4.4,0,0,0,.22-.66L25,3.66a.51.51,0,0,0-.78-.06l-3.8,3.81A.73.73,0,0,0,20.31,8.32Z"/><path class="cls-1" d="M29.47,25.51l-5.34-1.76a.88.88,0,0,0-.92.3l-2.84,3.87a.71.71,0,0,0,.07.91l3.79,3.8a.51.51,0,0,0,.78-.06l4.68-6.39A.41.41,0,0,0,29.47,25.51Z"/><path class="cls-1" d="M38.09,3.77,27.28,17.93,38.09,32.08a1.88,1.88,0,0,0,1.17.83c2,.61,7.31,2.3,8.24,2.63,1.49.53,1.71.44.8-.74L35.42,17.93,48.3,1.05c.91-1.17.69-1.27-.8-.74-.93.33-6.26,2-8.24,2.63A1.88,1.88,0,0,0,38.09,3.77Z"/><polygon class="cls-1" points="0 10.26 2.91 10.26 2.91 28.53 6.15 28.53 6.15 10.26 9.05 10.26 9.05 7.32 0 7.32 0 10.26"/><polygon class="cls-1" points="14.31 19.2 18.12 19.2 18.12 16.26 14.31 16.26 14.31 10.26 18.27 10.26 18.27 7.32 11.07 7.32 11.07 28.53 18.33 28.53 18.33 25.59 14.31 25.59 14.31 19.2"/><path class="cls-1" d="M48.07,7.3l-3,21.23h3l.4-3.34H51.8l.42,3.34h3.21L52.37,7.3Zm.73,15,1.33-10.6,1.31,10.6Z"/><path class="cls-1" d="M64.09,17.65l-3.28-2.39a1.85,1.85,0,0,1-.91-1.73V11.17A1.07,1.07,0,0,1,61.12,10h.39a1.06,1.06,0,0,1,1.21,1.21V14.9H65.9V11.05c0-2.6-1.3-3.91-3.91-3.91H60.63c-2.63,0-3.93,1.31-3.93,3.94V14a3.89,3.89,0,0,0,1.87,3.66l3.27,2.4a1.84,1.84,0,0,1,.91,1.72v2.91c0,.82-.39,1.21-1.24,1.21h-.42c-.85,0-1.25-.39-1.25-1.21V20.32H56.7V24.8c0,2.61,1.27,3.91,3.9,3.91H62c2.63,0,3.93-1.3,3.93-3.94V21.32A3.87,3.87,0,0,0,64.09,17.65Z"/><path class="cls-1" d="M81.12,18.53c1.19-.48,1.85-1.39,1.85-3.27v-4c0-2.63-1.3-3.94-3.94-3.94H73.7V28.53H77V20H78.4c.94,0,1.36.42,1.36,1.36v7.15H83V21.32C83,19.71,82.46,18.89,81.12,18.53ZM79.73,15.9c0,.88-.42,1.3-1.33,1.3H77v-7h1.57a1.06,1.06,0,0,1,1.21,1.21Z"/><path class="cls-1" d="M90.52,7.14H88.79q-3.95,0-3.94,3.94V24.77c0,2.64,1.31,3.94,3.94,3.94h1.73c2.63,0,3.94-1.3,3.94-3.94V11.08Q94.46,7.13,90.52,7.14Zm.7,17.48c0,.85-.4,1.24-1.22,1.24h-.66a1.09,1.09,0,0,1-1.25-1.24V11.23A1.09,1.09,0,0,1,89.34,10H90c.82,0,1.22.39,1.22,1.24Z"/><polygon class="cls-1" points="99.78 7.32 96.54 7.32 96.54 28.53 103.36 28.53 103.36 25.59 99.78 25.59 99.78 7.32"/><polygon class="cls-1" points="108.73 7.32 105.49 7.32 105.49 28.53 112.3 28.53 112.3 25.59 108.73 25.59 108.73 7.32"/><polygon class="cls-1" points="117.52 19.2 121.33 19.2 121.33 16.26 117.52 16.26 117.52 10.26 121.49 10.26 121.49 7.32 114.28 7.32 114.28 28.53 121.55 28.53 121.55 25.59 117.52 25.59 117.52 19.2"/><path class="cls-1" d="M131.12,18.53c1.18-.48,1.85-1.39,1.85-3.27v-4c0-2.63-1.3-3.94-3.94-3.94H123.7V28.53h3.24V20h1.45c.94,0,1.37.42,1.37,1.36v7.15H133V21.32C133,19.71,132.45,18.89,131.12,18.53Zm-1.39-2.63c0,.88-.43,1.3-1.34,1.3h-1.45v-7h1.58a1.07,1.07,0,0,1,1.21,1.21Z"/><path class="cls-1" d="M145.71,7.32h-4.88V28.53h4.88c3.15,0,4.63-1.52,4.63-4.64V12C150.34,8.84,148.86,7.32,145.71,7.32ZM147.1,23.8c0,1.27-.57,1.88-1.84,1.88h-1.18V10.17h1.18c1.27,0,1.84.61,1.84,1.88Z"/><polygon class="cls-1" points="155.44 19.2 159.25 19.2 159.25 16.26 155.44 16.26 155.44 10.26 159.4 10.26 159.4 7.32 152.2 7.32 152.2 28.53 159.47 28.53 159.47 25.59 155.44 25.59 155.44 19.2"/><path class="cls-1" d="M168.61,18.53c1.18-.48,1.84-1.39,1.84-3.27v-4c0-2.63-1.3-3.94-3.93-3.94h-5.33V28.53h3.24V20h1.45c.94,0,1.36.42,1.36,1.36v7.15h3.24V21.32C170.48,19.71,169.94,18.89,168.61,18.53Zm-1.4-2.63c0,.88-.42,1.3-1.33,1.3h-1.45v-7H166a1.06,1.06,0,0,1,1.21,1.21Z"/><path class="cls-1" d="M179.9,17.62c1.18-.42,1.82-1.36,1.82-3.24V11.26q0-3.94-3.94-3.94h-5.24V28.53h5.3q3.94,0,3.94-3.94V20.68C181.78,19,181.17,18.05,179.9,17.62Zm-4.15-7.45h1.54a1.07,1.07,0,0,1,1.22,1.21V15a1.16,1.16,0,0,1-1.34,1.33h-1.42Zm2.82,14.3a1.07,1.07,0,0,1-1.22,1.21h-1.6V19.11h1.48a1.16,1.16,0,0,1,1.34,1.33Z"/><polygon class="cls-1" points="187.79 16.26 185.95 7.32 182.62 7.32 186.1 21.26 186.1 28.53 189.34 28.53 189.34 21.1 192.82 7.32 189.7 7.32 187.79 16.26"/></svg>